<svg xmlns="http://www.w3.org/2000/svg" xmlns:xlink="http://www.w3.org/1999/xlink"><symbol id="html-academy" viewBox="0 0 60 60"><path fill="#2E368F" d="M30.2 5h-.2l-19.7 2.1v36.2l19.7 11.7 19.7-11.7v-36.2l-19.5-2.1zm17 36.8l-17.2 10.2-17.2-10.2v-14.8l17.1 10.2v1.8l-11.7-7v1.8l11.8 7.1v1.9l-11.8-7v1.8l11.8 7 11.9-7.1v-7.6l5.3-3.2v15.1zm-.1-17l-4.7 2.8-2.2 1.3-10.3-6.1v1.8l8.8 5.3h-.1l-.2.1-1.3.7-7.3-4.3v1.8l5.8 3.4-1.4.9-4.3-2.6v1.8l2.9 1.7-2.9 1.7-17-10.1 17-10.2 17.2 10zm.1-1.8l-17.3-10.2-17.1 10.2v-13.6l17.2-1.8 17.2 1.8v13.6z"/></symbol><symbol id="icon-fb" viewBox="0 0 13 20">
<path d="M11.5 0.833252H8.75001C7.53443 0.833252 6.36864 1.30674 5.5091 2.14957C4.64956 2.99239 4.16667 4.1355 4.16667 5.32743V8.02394H1.41667V11.6193H4.16667V18.81H7.83334V11.6193H10.5833L11.5 8.02394H7.83334V5.32743C7.83334 5.08905 7.92992 4.86042 8.10182 4.69186C8.27373 4.52329 8.50689 4.4286 8.75001 4.4286H11.5V0.833252Z" stroke="#666666" stroke-width="1.1" stroke-linecap="round" stroke-linejoin="round"/>
</symbol><symbol id="icon-ig" viewBox="0 0 16 16">
<path d="M7.98438 0.0625C9.31771 0.0625 10.4062 0.078125 11.25 0.109375C11.9688 0.140625 12.6094 0.265625 13.1719 0.484375C13.7135 0.692708 14.1823 0.994792 14.5781 1.39062C14.974 1.78646 15.276 2.25521 15.4844 2.79687C15.7031 3.35937 15.8281 4 15.8594 4.71875C15.8906 5.5625 15.9062 6.65104 15.9062 7.98437C15.9062 9.31771 15.8906 10.4062 15.8594 11.25C15.8281 11.9687 15.7031 12.6094 15.4844 13.1719C15.276 13.7135 14.974 14.1823 14.5781 14.5781C14.1823 14.974 13.7135 15.276 13.1719 15.4844C12.6094 15.7031 11.9688 15.8281 11.25 15.8594C10.4062 15.8906 9.31771 15.9062 7.98438 15.9062C6.65104 15.9062 5.5625 15.8906 4.71875 15.8594C4 15.8281 3.35938 15.7031 2.79688 15.4844C2.25521 15.276 1.78646 14.974 1.39062 14.5781C0.994792 14.1823 0.692708 13.7135 0.484375 13.1719C0.265625 12.6094 0.140625 11.9687 0.109375 11.25C0.078125 10.4062 0.0625 9.31771 0.0625 7.98437C0.0625 6.65104 0.078125 5.5625 0.109375 4.71875C0.140625 4 0.265625 3.35937 0.484375 2.79687C0.692708 2.25521 0.994792 1.78646 1.39062 1.39062C1.78646 0.994792 2.25521 0.692708 2.79688 0.484375C3.35938 0.265625 4 0.140625 4.71875 0.109375C5.5625 0.078125 6.65104 0.0625 7.98438 0.0625ZM7.98438 1.09375C6.59896 1.09375 5.46875 1.10937 4.59375 1.14062C4.03125 1.16146 3.51042 1.26042 3.03125 1.4375C2.28125 1.75 1.75 2.28125 1.4375 3.03125C1.26042 3.51042 1.16146 4.03125 1.14062 4.59375C1.10938 5.46875 1.09375 6.59896 1.09375 7.98437C1.09375 9.36979 1.10938 10.5 1.14062 11.375C1.16146 11.9375 1.26042 12.4583 1.4375 12.9375C1.75 13.6875 2.28125 14.2187 3.03125 14.5312C3.51042 14.7083 4.03125 14.8073 4.59375 14.8281C5.46875 14.8594 6.59896 14.875 7.98438 14.875C9.36979 14.875 10.5 14.8594 11.375 14.8281C11.9375 14.8073 12.4583 14.7083 12.9375 14.5312C13.6875 14.2187 14.2188 13.6875 14.5312 12.9375C14.7083 12.4583 14.8073 11.9375 14.8281 11.375C14.8594 10.5 14.875 9.36979 14.875 7.98437C14.875 6.59896 14.8594 5.46875 14.8281 4.59375C14.8073 4.03125 14.7083 3.51042 14.5312 3.03125C14.2188 2.28125 13.6875 1.75 12.9375 1.4375C12.4583 1.26042 11.9375 1.16146 11.375 1.14062C10.5 1.10937 9.36979 1.09375 7.98438 1.09375ZM7.98438 11.1562C8.85938 11.1562 9.60677 10.8464 10.2266 10.2266C10.8464 9.60677 11.1562 8.85937 11.1562 7.98437C11.1562 7.10937 10.8464 6.36198 10.2266 5.74219C9.60677 5.1224 8.85938 4.8125 7.98438 4.8125C7.10938 4.8125 6.36198 5.1224 5.74219 5.74219C5.1224 6.36198 4.8125 7.10937 4.8125 7.98437C4.8125 8.85937 5.1224 9.60677 5.74219 10.2266C6.36198 10.8464 7.10938 11.1562 7.98438 11.1562ZM7.98438 3.92187C9.10938 3.92187 10.0677 4.31771 10.8594 5.10937C11.651 5.90104 12.0469 6.85937 12.0469 7.98437C12.0469 9.10937 11.651 10.0677 10.8594 10.8594C10.0677 11.651 9.10938 12.0469 7.98438 12.0469C6.85938 12.0469 5.90104 11.651 5.10938 10.8594C4.31771 10.0677 3.92188 9.10937 3.92188 7.98437C3.92188 6.85937 4.31771 5.90104 5.10938 5.10937C5.90104 4.31771 6.85938 3.92187 7.98438 3.92187ZM13.1719 3.76562C13.1719 4.02604 13.0781 4.2474 12.8906 4.42969C12.7031 4.61198 12.474 4.70312 12.2031 4.70312C11.9427 4.70312 11.7214 4.61198 11.5391 4.42969C11.3568 4.2474 11.2656 4.02604 11.2656 3.76562C11.2656 3.49479 11.3568 3.26562 11.5391 3.07812C11.7214 2.89062 11.9427 2.79687 12.2031 2.79687C12.4635 2.79687 12.6901 2.89323 12.8828 3.08594C13.0755 3.27865 13.1719 3.50521 13.1719 3.76562Z" fill="#666666"/>
</symbol><symbol id="icon-vk" viewBox="0 0 23 13">
<path d="M0.0700912 1.99266C0.0700912 1.37082 0.493211 1.03552 1.33945 0.986745L4.60039 1.00503C4.81925 1.00503 4.96515 1.09648 5.03811 1.27938C5.37368 2.19385 5.74938 2.98334 6.16521 3.64785C6.58103 4.31237 7.12453 5.07747 7.79568 5.94317C7.85404 6.05291 7.94888 6.10778 8.08019 6.10778C8.18233 6.10778 8.26257 6.0651 8.32093 5.97975L8.38659 5.77857L8.40848 2.6145C8.40848 2.39503 8.34647 2.24871 8.22245 2.17556C8.09843 2.1024 7.86863 2.04753 7.53305 2.01095C7.27043 1.97437 7.13912 1.84025 7.13912 1.60859C7.13912 1.55981 7.14641 1.52323 7.161 1.49885C7.4674 0.706308 8.34282 0.310037 9.78726 0.310037L11.0129 0.291748C11.5673 0.291748 12.0269 0.407581 12.3916 0.639247C12.7564 0.870912 12.9388 1.2367 12.9388 1.73661V5.88831C13.0409 5.94927 13.1357 5.97975 13.2233 5.97975C13.4421 5.97975 13.6318 5.87002 13.7923 5.65054C15.3973 3.77283 16.2654 2.51696 16.3967 1.88293C16.3967 1.87073 16.4113 1.84025 16.4405 1.79148C16.5426 1.60859 16.7104 1.45008 16.9438 1.31595C17.1773 1.18183 17.3815 1.09039 17.5566 1.04161C17.615 1.01723 17.6806 1.00503 17.7536 1.00503H21.1459L21.3647 1.02332C21.6565 1.02332 21.8827 1.13916 22.0432 1.37082C22.1015 1.44398 22.1416 1.52323 22.1635 1.60859C22.1854 1.69394 22.2 1.77929 22.2073 1.86464C22.2146 1.94999 22.2182 1.99876 22.2182 2.01095V2.13898C22.1161 2.63889 21.8571 3.17233 21.4413 3.7393C21.0255 4.30627 20.4966 4.91897 19.8546 5.57739C19.2126 6.2358 18.8114 6.66865 18.6509 6.87593C18.5196 7.02225 18.4539 7.15637 18.4539 7.2783C18.4539 7.37584 18.5123 7.48558 18.629 7.60751L21.8243 10.9728C21.9994 11.1678 22.0869 11.3812 22.0869 11.6129C22.0869 11.8933 21.9556 12.125 21.693 12.3079C21.4304 12.4908 21.1167 12.5944 20.7519 12.6188L20.3799 12.6371H17.0533C17.0387 12.6371 17.0095 12.6401 16.9657 12.6462C16.9219 12.6523 16.8928 12.6554 16.8782 12.6554C16.5572 12.6554 16.2581 12.5396 15.9809 12.3079C15.8787 12.2103 15.193 11.491 13.9236 10.1497C13.8507 10.0644 13.7485 9.98513 13.6172 9.91197C13.5589 10.1071 13.4823 10.3875 13.3874 10.7533C13.2926 11.1191 13.2233 11.3812 13.1795 11.5397L13.1139 11.8507C12.968 12.2774 12.6616 12.5335 12.1947 12.6188L11.8883 12.6371H9.74349C8.53249 12.6371 7.32514 12.1738 6.12144 11.2471C4.91773 10.3204 3.8344 9.12248 2.87144 7.65323C1.90848 6.18398 1.01117 4.47392 0.179519 2.52306C0.106567 2.36455 0.0700912 2.18775 0.0700912 1.99266ZM13.2233 6.72962C12.9169 6.72962 12.6397 6.65951 12.3916 6.51929C12.1436 6.37907 12.0196 6.18703 12.0196 5.94317V1.73661C12.0196 1.49275 11.9466 1.319 11.8007 1.21536C11.6548 1.11172 11.3995 1.0599 11.0347 1.0599L9.78726 1.09648C9.15988 1.09648 8.68569 1.18793 8.3647 1.37082C9.00668 1.62687 9.32767 2.04143 9.32767 2.6145V5.83344C9.29849 6.13826 9.15258 6.39126 8.88996 6.59245C8.62733 6.79363 8.33552 6.89422 8.01454 6.89422C7.57683 6.89422 7.24125 6.71742 7.0078 6.36383C5.86975 4.92506 5.02351 3.55945 4.46908 2.267L4.27211 1.79148L1.36134 1.77319C1.17166 1.77319 1.06588 1.78233 1.044 1.80062C1.02211 1.81891 1.01117 1.87073 1.01117 1.95608C1.01117 2.06582 1.02576 2.18165 1.05494 2.30358L1.51454 3.32779C2.74013 5.97366 4.07149 8.05865 5.50864 9.58276C6.94579 11.1069 8.35741 11.8689 9.74349 11.8689H11.932C12.0196 11.8689 12.0852 11.8476 12.129 11.8049C12.1728 11.7623 12.2093 11.6799 12.2384 11.558L12.2822 11.3751L12.698 9.76566C12.8148 9.54619 12.9169 9.39987 13.0044 9.32671C13.1649 9.19259 13.3546 9.12553 13.5735 9.12553C13.9236 9.12553 14.2811 9.30233 14.6458 9.65592L16.5061 11.6312C16.6228 11.7897 16.7469 11.8689 16.8782 11.8689H20.4893C20.927 11.8689 21.1459 11.7775 21.1459 11.5946C21.1459 11.5336 21.124 11.4727 21.0802 11.4117L17.9068 8.10132C17.6588 7.84527 17.5347 7.57093 17.5347 7.2783C17.5347 6.98567 17.6515 6.70523 17.8849 6.43699C18.0746 6.19313 18.443 5.78771 18.9901 5.22074C19.5373 4.65377 20.0151 4.12338 20.4236 3.62956C20.8322 3.13575 21.1021 2.68766 21.2334 2.28529L21.299 2.04753C21.2845 2.02314 21.2772 1.98352 21.2772 1.92865C21.2772 1.87378 21.2699 1.82806 21.2553 1.79148H17.8193C17.6004 1.86464 17.4253 1.97437 17.294 2.12069L17.1627 2.46819C16.7979 3.3095 15.8423 4.60805 14.2957 6.36383C13.9893 6.60769 13.6318 6.72962 13.2233 6.72962Z" fill="#666666"/>
</symbol><symbol id="logo-text" viewBox="0 0 102 20">
<path d="M1.78992 17.4945C0.902539 16.1681 0.478241 14.5814 0.583977 12.9848V6.46795C0.472038 4.85958 0.889922 3.25895 1.77269 1.91483C2.5709 0.877922 3.93477 0.362366 5.86427 0.368159C7.79377 0.373952 9.10021 0.828685 9.78358 1.73236C10.6168 2.85221 11.0234 4.23682 10.9292 5.63379V7.16309H7.36308V5.50346C7.35827 5.06678 7.32084 4.63108 7.2511 4.20008C7.20799 3.88807 7.06596 3.59849 6.84625 3.37461C6.71061 3.25728 6.55315 3.16841 6.38306 3.11321C6.21297 3.05801 6.03367 3.03757 5.85565 3.05311C5.6 3.01462 5.3388 3.05654 5.10761 3.17315C4.87641 3.28976 4.68645 3.47539 4.56357 3.7048C4.33709 4.31502 4.2374 4.9657 4.27071 5.61642V13.8885C4.23141 14.5435 4.34653 15.1986 4.60665 15.8001C4.73093 16.0171 4.91535 16.1927 5.13724 16.3054C5.35914 16.4181 5.60884 16.463 5.85565 16.4344C6.09818 16.469 6.34535 16.4255 6.5619 16.31C6.77846 16.1946 6.95333 16.0131 7.06159 15.7914C7.26996 15.1801 7.36059 14.5342 7.32862 13.8885V12.1507H10.8948V13.6539C10.9997 15.0715 10.6263 16.4832 9.83526 17.6596C9.07724 18.6154 7.76793 19.0846 5.90734 19.0846C4.04675 19.0846 2.59101 18.5633 1.78992 17.4945Z" fill="#111111"/>
<path d="M15.788 0.62014H19.871L23.3166 18.8674H19.9227L19.3111 14.8356H16.4513L15.7622 18.8413H12.3167L15.788 0.62014ZM18.9321 12.5417L17.8468 5.20802L16.77 12.5417H18.9321Z" fill="#111111"/>
<path d="M25.9615 3.36592H23.1707V0.62014H32.4047V3.36592H29.6483V18.8413H25.9529L25.9615 3.36592Z" fill="#111111"/>
<path d="M39.6498 0.62014H46.6528V2.51438H42.1736V8.53597H45.8087V10.3346H42.1736V17.0166H46.6959V18.8413H39.6498V0.62014Z" fill="#444444"/>
<path d="M48.7292 0.62014H50.452L55.6203 12.7241V0.62014H57.7221V18.8674H56.1113L50.943 6.4245V18.8413H48.8068L48.7292 0.62014Z" fill="#444444"/>
<path d="M60.505 0.62014H67.4994V2.51438H63.0202V8.53597H66.6897V10.3346H63.0547V17.0166H67.5511V18.8413H60.505V0.62014Z" fill="#444444"/>
<path d="M69.5758 0.620143H73.2109C74.6434 0.503862 76.07 0.907537 77.2335 1.75842C78.0949 2.51438 78.517 3.74824 78.517 5.46001C78.517 7.77712 77.7733 9.19345 76.286 9.70901L78.8702 18.8413H76.4238L74.055 10.2912H72.0997V18.8413H69.5758V0.620143ZM73.0214 8.44039C73.8512 8.52138 74.681 8.28577 75.3471 7.78002C75.6178 7.45685 75.8201 7.08124 75.9416 6.67629C76.0631 6.27133 76.1011 5.8456 76.0534 5.42525C76.0707 4.83574 75.9862 4.24769 75.8036 3.68742C75.7296 3.48083 75.6152 3.29133 75.4672 3.13014C75.3193 2.96895 75.1408 2.83934 74.9423 2.74899C74.3831 2.51756 73.7801 2.41371 73.1764 2.44487H72.0652V8.47515L73.0214 8.44039Z" fill="#444444"/>
<path d="M81.9114 17.4945C81.0881 16.0926 80.7065 14.4714 80.8175 12.8458V6.76338C80.7878 5.58961 80.933 4.418 81.2481 3.28772C81.4969 2.43796 82.0257 1.69925 82.747 1.19363C83.6178 0.664235 84.6259 0.410019 85.6412 0.463736C86.298 0.40073 86.9605 0.48317 87.5824 0.705295C88.2043 0.92742 88.7707 1.28387 89.2418 1.74973C90.0683 2.91759 90.4588 4.34258 90.3444 5.77282V6.45057H87.9756V5.88578C87.9917 5.21025 87.9398 4.53482 87.8205 3.86989C87.7421 3.44375 87.5086 3.06256 87.1659 2.80112C86.7187 2.53492 86.2024 2.41078 85.6843 2.44487C85.1216 2.39631 84.5624 2.57086 84.1252 2.93146C83.7679 3.27339 83.5345 3.72611 83.4619 4.21746C83.3528 4.93321 83.3038 5.65698 83.3155 6.38106V13.1499C83.2471 14.1785 83.4213 15.2088 83.8237 16.1564C84.0574 16.4478 84.3541 16.6814 84.6911 16.8395C85.028 16.9975 85.3964 17.0757 85.7679 17.0682C86.1394 17.0606 86.5043 16.9675 86.8347 16.7959C87.1651 16.6243 87.4522 16.3788 87.6741 16.0782C88.0892 15.076 88.269 13.9905 88.1995 12.9066V11.6206H85.9083V9.82197H90.4736V18.8413H88.9145L88.6647 16.7472C88.4673 17.4429 88.0423 18.0508 87.459 18.472C86.8757 18.8933 86.1682 19.103 85.4517 19.0672C84.778 19.1272 84.1003 19.0144 83.4814 18.7395C82.8624 18.4645 82.3224 18.0363 81.9114 17.4945Z" fill="#444444"/>
<path d="M95.7113 12.4113L91.8093 0.62014H94.1522L96.9173 9.41358L99.6393 0.62014H102.008L98.1318 12.4113V18.8413H95.72L95.7113 12.4113Z" fill="#444444"/>
</symbol></svg>