<svg width="20" height="20" viewBox="0 0 20 20" fill="none" xmlns="http://www.w3.org/2000/svg">
<g clip-path="url(#clip0)">
<path d="M17.9 9.4H9.39999V10.6H17.9L15.8 12.7L16.7 13.6L19.8 10.5C19.8974 10.3702 19.95 10.2123 19.95 10.05C19.95 9.88772 19.8974 9.72982 19.8 9.6L16.7 6.5L15.8 7.4L17.9 9.4Z" fill="#68B738"/>
<path d="M8.1 19.4V13.2C8.08845 13.0447 8.02153 12.8987 7.91141 12.7886C7.80129 12.6785 7.6553 12.6116 7.5 12.6H3.1C3.10515 12.9167 3.23323 13.2189 3.45717 13.4428C3.6811 13.6668 3.98335 13.7949 4.3 13.8H6.8V18.8H3.1C2.86324 18.8149 2.62589 18.7825 2.40175 18.7048C2.1776 18.6271 1.97114 18.5057 1.79435 18.3475C1.61756 18.1893 1.47397 17.9976 1.37194 17.7834C1.26991 17.5693 1.21146 17.337 1.2 17.1V3.10001C1.1918 2.6373 1.36515 2.18977 1.68291 1.85331C2.00067 1.51686 2.43757 1.31824 2.9 1.30001H6.8V6.30001H4.4C4.08335 6.30516 3.7811 6.43324 3.55717 6.65718C3.33323 6.88112 3.20515 7.18336 3.2 7.50001H7.6C7.7553 7.48846 7.90129 7.42154 8.01141 7.31142C8.12153 7.2013 8.18845 7.05531 8.2 6.90001V0.600012C8.1523 0.443872 8.06115 0.304534 7.93719 0.198285C7.81324 0.0920352 7.6616 0.0232649 7.5 1.23734e-05H3.1C2.70598 -0.0133408 2.31319 0.0511002 1.94409 0.189651C1.57499 0.328202 1.23682 0.538145 0.948918 0.807477C0.661011 1.07681 0.429014 1.40025 0.266192 1.7593C0.103369 2.11835 0.0129147 2.50598 -6.28177e-07 2.90001V16.8C-0.0289796 17.1977 0.0246352 17.597 0.157472 17.9729C0.290309 18.3489 0.499494 18.6932 0.771871 18.9844C1.04425 19.2756 1.37393 19.5072 1.74017 19.6648C2.10642 19.8224 2.5013 19.9024 2.9 19.9H7.5C7.57349 19.915 7.64941 19.9133 7.72215 19.895C7.79489 19.8767 7.86257 19.8423 7.92019 19.7942C7.97782 19.7462 8.0239 19.6859 8.05502 19.6176C8.08615 19.5494 8.10152 19.475 8.1 19.4Z" fill="#68B738"/>
</g>
<defs>
<clipPath id="clip0">
<rect width="20" height="20" fill="white"/>
</clipPath>
</defs>
</svg>
